<svg width="33" height="32" viewBox="0 0 33 32" fill="none" xmlns="http://www.w3.org/2000/svg">
<circle cx="16.0538" cy="16" r="16" fill="#32200D"/>
<rect x="0.053772" width="32" height="32" fill="#32200D"/>
<path fill-rule="evenodd" clip-rule="evenodd" d="M14.3398 13.9794H16.8158V15.2127C17.1724 14.5034 18.0871 13.866 19.4611 13.866C22.0951 13.866 22.7204 15.278 22.7204 17.8687V22.6667H20.0538V18.4587C20.0538 16.9834 19.6971 16.1514 18.7891 16.1514C17.5298 16.1514 17.0064 17.048 17.0064 18.458V22.6667H14.3398V13.9794ZM9.76708 22.5534H12.4338V13.866H9.76708V22.5534ZM12.8158 11.0334C12.8159 11.2569 12.7715 11.4782 12.6853 11.6844C12.5992 11.8907 12.4729 12.0777 12.3138 12.2347C11.9914 12.5551 11.555 12.7345 11.1004 12.7334C10.6467 12.7331 10.2113 12.5542 9.88842 12.2354C9.72989 12.0778 9.60401 11.8906 9.51798 11.6843C9.43195 11.4781 9.38747 11.2569 9.38708 11.0334C9.38708 10.582 9.56708 10.15 9.88908 9.83137C10.2117 9.51215 10.6472 9.33317 11.1011 9.33337C11.5558 9.33337 11.9918 9.51271 12.3138 9.83137C12.6351 10.15 12.8158 10.582 12.8158 11.0334Z" fill="white"/>
</svg>
