<svg width="33" height="32" viewBox="0 0 33 32" fill="none" xmlns="http://www.w3.org/2000/svg">
<circle cx="16.0538" cy="16" r="16" fill="#32200D"/>
<rect x="0.053772" width="32" height="32" fill="#32200D"/>
<path d="M16.0538 13.2916C15.3355 13.2916 14.6466 13.577 14.1387 14.0849C13.6308 14.5928 13.3455 15.2817 13.3455 16C13.3455 16.7183 13.6308 17.4071 14.1387 17.915C14.6466 18.423 15.3355 18.7083 16.0538 18.7083C16.7721 18.7083 17.461 18.423 17.9689 17.915C18.4768 17.4071 18.7621 16.7183 18.7621 16C18.7621 15.2817 18.4768 14.5928 17.9689 14.0849C17.461 13.577 16.7721 13.2916 16.0538 13.2916Z" fill="white"/>
<path fill-rule="evenodd" clip-rule="evenodd" d="M11.6955 8.56833C14.5921 8.24724 17.5154 8.24724 20.4121 8.56833C21.9946 8.74499 23.2705 9.99083 23.4563 11.5792C23.7998 14.5164 23.7998 17.4836 23.4563 20.4208C23.2705 22.0092 21.9946 23.255 20.413 23.4325C17.516 23.7537 14.5924 23.7537 11.6955 23.4325C10.113 23.255 8.83712 22.0092 8.65129 20.4217C8.30773 17.4842 8.30773 14.5166 8.65129 11.5792C8.83712 9.99083 10.113 8.74499 11.6955 8.56833ZM20.2205 11C19.9994 11 19.7875 11.0878 19.6312 11.2441C19.4749 11.4004 19.3871 11.6123 19.3871 11.8333C19.3871 12.0543 19.4749 12.2663 19.6312 12.4226C19.7875 12.5789 19.9994 12.6667 20.2205 12.6667C20.4415 12.6667 20.6534 12.5789 20.8097 12.4226C20.966 12.2663 21.0538 12.0543 21.0538 11.8333C21.0538 11.6123 20.966 11.4004 20.8097 11.2441C20.6534 11.0878 20.4415 11 20.2205 11ZM12.0955 16C12.0955 14.9502 12.5125 13.9434 13.2548 13.201C13.9972 12.4587 15.004 12.0417 16.0538 12.0417C17.1036 12.0417 18.1104 12.4587 18.8527 13.201C19.5951 13.9434 20.0121 14.9502 20.0121 16C20.0121 17.0498 19.5951 18.0566 18.8527 18.799C18.1104 19.5413 17.1036 19.9583 16.0538 19.9583C15.004 19.9583 13.9972 19.5413 13.2548 18.799C12.5125 18.0566 12.0955 17.0498 12.0955 16Z" fill="white"/>
</svg>
